<svg xmlns="http://www.w3.org/2000/svg" viewBox="0 0 640 640"><g transform="translate(0.000000,640.000000) scale(0.100000,-0.100000)"
fill="currentColor" stroke="none">
<path d="M4692 5147 c-116 -117 -212 -219 -212 -228 0 -8 -52 -66 -115 -129
-63 -62 -115 -118 -115 -124 0 -6 -52 -63 -115 -126 -63 -63 -115 -122 -115
-130 0 -9 -45 -60 -100 -115 -55 -54 -100 -104 -100 -111 0 -7 -40 -52 -90
-100 -49 -48 -90 -95 -90 -104 0 -8 -34 -49 -75 -90 -41 -41 -75 -80 -75 -87
0 -7 -40 -53 -90 -102 -49 -49 -90 -95 -90 -103 0 -7 -29 -43 -65 -78 -36 -35
-65 -70 -65 -78 0 -7 -56 -69 -125 -138 -69 -69 -125 -131 -125 -138 0 -6 -36
-47 -81 -91 -62 -62 -79 -85 -76 -102 2 -13 -2 -28 -9 -34 -16 -13 -19 -109
-4 -109 6 0 10 -8 10 -18 0 -10 17 -35 38 -55 l38 -37 527 0 527 0 0 -39 c0
-22 -6 -44 -15 -51 -8 -7 -15 -25 -15 -40 0 -15 -7 -33 -16 -41 -9 -7 -14 -22
-11 -36 2 -13 -2 -28 -9 -34 -8 -6 -14 -30 -14 -54 0 -27 -6 -47 -16 -56 -9
-7 -14 -22 -11 -36 2 -13 -2 -28 -9 -34 -8 -6 -14 -24 -14 -39 0 -15 -7 -33
-15 -40 -8 -7 -15 -25 -15 -41 0 -15 -4 -31 -10 -34 -5 -3 -10 -19 -10 -34 0
-16 -7 -34 -15 -41 -8 -7 -15 -24 -15 -39 0 -15 -5 -32 -12 -39 -7 -7 -11 -29
-10 -50 2 -25 -3 -44 -13 -52 -8 -7 -15 -25 -15 -40 0 -15 -7 -33 -16 -41 -9
-7 -13 -21 -10 -35 4 -13 0 -27 -9 -34 -9 -7 -15 -29 -15 -55 0 -27 -6 -47
-16 -56 -9 -7 -14 -22 -11 -36 2 -13 -2 -28 -9 -34 -8 -6 -14 -24 -14 -39 0
-15 -7 -33 -15 -40 -8 -7 -15 -25 -15 -41 0 -15 -4 -31 -10 -34 -5 -3 -10 -19
-10 -34 0 -16 -7 -34 -15 -41 -11 -9 -15 -34 -15 -93 0 -78 1 -80 36 -113 19
-19 41 -34 48 -34 8 0 19 -7 26 -15 16 -19 54 -19 74 0 8 8 21 15 29 15 8 0
20 7 27 15 7 8 19 15 26 15 20 0 54 32 54 50 0 9 34 49 75 90 41 41 75 80 75
88 0 7 36 49 81 93 44 43 78 83 75 87 -3 5 24 37 59 72 36 36 65 71 65 79 0 8
52 66 115 129 63 62 115 119 115 126 0 6 29 41 65 76 36 35 65 72 65 80 0 9
52 67 115 130 63 62 115 118 115 124 0 6 34 45 75 86 41 41 75 82 75 90 0 9
41 56 90 104 50 49 90 94 90 102 0 7 34 46 75 86 41 40 75 80 75 88 0 9 29 45
65 80 36 35 65 71 65 78 0 7 41 53 90 101 50 49 90 95 90 102 0 8 34 48 75 89
41 41 75 81 75 89 0 7 11 24 25 37 14 13 25 29 25 37 0 8 7 20 15 27 9 7 15
29 15 54 0 37 -6 48 -48 89 -26 26 -55 47 -65 47 -9 0 -17 4 -17 10 0 6 -181
11 -507 12 -508 3 -508 3 -511 32 -2 19 2 32 12 38 10 6 16 22 16 43 0 19 5
35 10 35 6 0 10 15 10 34 0 21 6 36 15 40 9 3 15 19 15 41 0 19 5 35 10 35 6
0 10 16 10 35 0 22 6 38 15 41 9 4 15 19 15 39 0 18 7 38 16 46 9 7 13 21 10
35 -4 13 0 27 9 34 9 8 15 30 15 55 0 30 5 45 16 49 12 5 15 14 10 37 -4 21
-1 31 9 35 10 4 15 21 15 54 0 33 5 50 15 54 9 3 15 19 15 41 0 19 5 35 10 35
6 0 10 15 10 34 0 21 6 36 15 40 9 3 15 19 15 41 0 19 5 35 10 35 6 0 10 20
10 44 0 26 6 48 15 56 8 7 15 27 15 45 0 19 6 35 12 37 7 3 11 18 10 35 -1 20
3 33 13 37 10 4 15 19 15 49 0 27 6 49 15 57 10 8 15 30 15 64 0 49 -3 55 -48
99 -45 44 -51 47 -102 47 -55 0 -55 0 -268 -213z m-132 -696 c0 -5 -7 -11 -15
-15 -8 -3 -15 -15 -15 -26 0 -11 -4 -20 -10 -20 -5 0 -10 -11 -10 -24 0 -13
-7 -26 -15 -30 -9 -3 -15 -19 -15 -41 0 -19 -4 -35 -10 -35 -5 0 -10 -20 -10
-44 0 -26 -6 -48 -15 -56 -8 -7 -15 -25 -15 -40 0 -15 -7 -33 -15 -40 -11 -9
-13 -23 -9 -51 5 -30 3 -40 -10 -45 -10 -4 -16 -18 -16 -39 0 -18 -6 -38 -14
-45 -8 -6 -12 -18 -9 -26 3 -7 -2 -17 -11 -20 -10 -4 -16 -18 -16 -39 0 -21
-6 -35 -16 -39 -11 -4 -15 -17 -13 -46 2 -22 -2 -45 -9 -52 -7 -7 -12 -20 -12
-30 0 -10 -7 -21 -15 -24 -10 -4 -15 -20 -15 -49 0 -37 6 -48 46 -89 l47 -46
462 0 c380 0 464 -2 468 -14 3 -8 -37 -55 -99 -117 -57 -57 -104 -111 -104
-119 0 -8 -47 -62 -104 -119 -58 -58 -103 -107 -101 -111 2 -4 -32 -42 -76
-85 -43 -44 -79 -87 -79 -95 0 -9 -45 -60 -100 -115 -55 -54 -100 -104 -100
-112 0 -7 -29 -42 -65 -76 -36 -35 -65 -69 -65 -78 0 -8 -34 -48 -75 -89 -41
-41 -75 -80 -75 -86 0 -13 -152 -174 -163 -174 -13 0 -7 28 9 41 9 7 14 22 11
36 -2 13 2 28 9 34 8 6 14 30 14 54 0 26 6 48 15 55 8 7 15 21 15 31 0 11 5
19 10 19 6 0 10 15 10 34 0 21 6 36 15 40 9 3 15 19 15 41 0 19 5 35 10 35 6
0 10 16 10 35 0 22 6 38 15 41 9 4 15 19 15 39 0 19 5 37 10 40 6 3 10 19 10
34 0 16 7 34 15 41 8 7 15 25 15 40 0 15 6 33 14 40 8 6 12 18 9 26 -3 7 2 17
11 20 12 5 16 20 16 64 0 55 -2 59 -46 104 -26 25 -55 46 -64 46 -10 0 -21 7
-24 15 -5 14 -59 15 -456 13 -247 -2 -450 -1 -450 2 0 3 27 32 60 65 33 33 60
66 60 75 0 9 47 62 105 119 58 56 105 108 105 115 0 6 27 38 60 71 33 33 60
66 60 75 0 9 59 74 130 145 72 70 130 133 130 139 0 6 34 45 75 86 41 41 75
81 75 90 0 8 63 78 140 155 77 77 140 145 140 152 0 19 83 101 103 102 9 1 17
-3 17 -8z M1717 4365 c-10 -14 -27 -25 -38 -25 -11 0 -22 -8 -25 -17 -3 -10
-10 -26 -15 -35 -5 -10 -9 -40 -9 -68 0 -28 4 -58 9 -68 5 -9 12 -25 15 -34 3
-10 14 -18 25 -18 11 0 28 -11 39 -25 20 -25 20 -25 720 -25 625 0 700 2 706
16 3 8 11 12 17 9 14 -9 79 54 79 77 0 10 7 21 15 24 10 4 15 20 15 44 0 24
-5 40 -15 44 -8 3 -15 14 -15 24 0 28 -65 86 -89 79 -11 -3 -25 1 -32 9 -15
18 -105 19 -112 2 -4 -10 -7 -10 -18 0 -16 15 -71 16 -85 2 -7 -7 -124 -11
-329 -11 -205 0 -322 4 -329 11 -6 6 -102 10 -260 10 -251 -1 -251 -1 -269
-25z M608 3357 c-58 -60 -58 -61 -58 -122 0 -64 24 -105 62 -105 9 0 21 -7 28
-15 11 -13 118 -15 851 -15 731 0 839 2 853 15 8 8 24 15 35 15 15 0 21 6 21
24 0 13 7 26 15 30 11 4 15 21 15 64 0 56 -2 59 -48 105 -26 26 -55 47 -64 47
-9 0 -20 5 -23 10 -4 7 -286 10 -818 9 l-812 -2 -57 -60z M1567 2402 c-26 -27
-45 -51 -42 -54 3 -3 -1 -11 -10 -18 -20 -17 -20 -86 1 -94 8 -3 12 -11 9 -17
-4 -6 8 -26 26 -45 l33 -34 753 0 c495 0 753 3 753 10 0 6 8 10 18 10 10 0 28
10 40 23 27 29 32 146 7 167 -8 7 -15 19 -15 26 0 24 -39 54 -69 54 -17 0 -33
5 -36 10 -4 7 -253 10 -713 10 l-708 0 -47 -48z"/>
</g></svg>